HIERARCHY
ROOT Root
{
  OFFSET 0.0 0.0 0.0
  CHANNELS 6 Xposition Yposition Zposition Zrotation Yrotation Xrotation
  JOINT Hips
  {
    OFFSET 0.0 100.0 0.0
    CHANNELS 6 Xposition Yposition Zposition Zrotation Yrotation Xrotation
    JOINT Spine1
    {
      OFFSET 5.003913 -0.037094 -0.013727
      CHANNELS 3 Zrotation Yrotation Xrotation
      JOINT Spine2
      {
        OFFSET 7.125363 -1e-06 0.0
        CHANNELS 3 Zrotation Yrotation Xrotation
        JOINT Chest
        {
          OFFSET 7.594027 1e-06 0.0
          CHANNELS 3 Zrotation Yrotation Xrotation
          JOINT Neck1
          {
            OFFSET 26.313086 -0.460272 -0.181672
            CHANNELS 3 Zrotation Yrotation Xrotation
            JOINT Neck2
            {
              OFFSET 8.045911 0.0 0.0
              CHANNELS 3 Zrotation Yrotation Xrotation
              JOINT Head
              {
                OFFSET 6.432774 0.0 0.0
                CHANNELS 3 Zrotation Yrotation Xrotation
                JOINT HeadEnd
                {
                  OFFSET 16.169773 0.06451 0.00362
                  CHANNELS 3 Zrotation Yrotation Xrotation
                }
                JOINT Jaw
                {
                  OFFSET 0.108741 3.12938 0.002639
                  CHANNELS 3 Zrotation Yrotation Xrotation
                }
                JOINT LeftEye
                {
                  OFFSET 4.45173 8.166359 3.206392
                  CHANNELS 3 Zrotation Yrotation Xrotation
                }
                JOINT RightEye
                {
                  OFFSET 4.436895 8.135758 -3.222429
                  CHANNELS 3 Zrotation Yrotation Xrotation
                }
              }
            }
          }
          JOINT LeftShoulder
          {
            OFFSET 23.218927 5.195579 1.621656
            CHANNELS 3 Zrotation Yrotation Xrotation
            JOINT LeftArm
            {
              OFFSET 15.902118 2e-06 -2e-06
              CHANNELS 3 Zrotation Yrotation Xrotation
              JOINT LeftForeArm
              {
                OFFSET 28.739307 0.0 -1e-06
                CHANNELS 3 Zrotation Yrotation Xrotation
                JOINT LeftHand
                {
                  OFFSET 27.093981 -4e-06 0.0
                  CHANNELS 3 Zrotation Yrotation Xrotation
                  JOINT LeftHandThumb1
                  {
                    OFFSET 2.276781 3.380274 0.83384
                    CHANNELS 3 Zrotation Yrotation Xrotation
                    JOINT LeftHandThumb2
                    {
                      OFFSET 4.705309 -1e-06 -1e-06
                      CHANNELS 3 Zrotation Yrotation Xrotation
                      JOINT LeftHandThumb3
                      {
                        OFFSET 2.798515 0.0 3e-06
                        CHANNELS 3 Zrotation Yrotation Xrotation
                        JOINT LeftHandThumbEnd
                        {
                          OFFSET 3.180793 4e-06 -4e-06
                          CHANNELS 3 Zrotation Yrotation Xrotation
                        }
                      }
                    }
                  }
                  JOINT LeftHandIndex1
                  {
                    OFFSET 3.247786 2.352677 0.137192
                    CHANNELS 3 Zrotation Yrotation Xrotation
                    JOINT LeftHandIndex2
                    {
                      OFFSET 6.367095 1e-06 0.0
                      CHANNELS 3 Zrotation Yrotation Xrotation
                      JOINT LeftHandIndex3
                      {
                        OFFSET 3.662364 0.0 0.0
                        CHANNELS 3 Zrotation Yrotation Xrotation
                        JOINT LeftHandIndex4
                        {
                          OFFSET 2.329242 4e-06 -4e-06
                          CHANNELS 3 Zrotation Yrotation Xrotation
                          JOINT LeftHandIndexEnd
                          {
                            OFFSET 2.767823 1e-06 0.0
                            CHANNELS 3 Zrotation Yrotation Xrotation
                          }
                        }
                      }
                    }
                  }
                  JOINT LeftHandMiddle1
                  {
                    OFFSET 3.163612 0.945023 -0.406112
                    CHANNELS 3 Zrotation Yrotation Xrotation
                    JOINT LeftHandMiddle2
                    {
                      OFFSET 6.276789 3e-06 0.0
                      CHANNELS 3 Zrotation Yrotation Xrotation
                      JOINT LeftHandMiddle3
                      {
                        OFFSET 4.35652 -1e-06 4e-06
                        CHANNELS 3 Zrotation Yrotation Xrotation
                        JOINT LeftHandMiddle4
                        {
                          OFFSET 2.996877 0.0 8e-06
                          CHANNELS 3 Zrotation Yrotation Xrotation
                          JOINT LeftHandMiddleEnd
                          {
                            OFFSET 2.323256 3e-06 -4e-06
                            CHANNELS 3 Zrotation Yrotation Xrotation
                          }
                        }
                      }
                    }
                  }
                  JOINT LeftHandRing1
                  {
                    OFFSET 2.882606 -0.309162 0.107445
                    CHANNELS 3 Zrotation Yrotation Xrotation
                    JOINT LeftHandRing2
                    {
                      OFFSET 6.033198 0.0 4e-06
                      CHANNELS 3 Zrotation Yrotation Xrotation
                      JOINT LeftHandRing3
                      {
                        OFFSET 4.350578 3e-06 0.0
                        CHANNELS 3 Zrotation Yrotation Xrotation
                        JOINT LeftHandRing4
                        {
                          OFFSET 2.651321 2e-06 -7e-06
                          CHANNELS 3 Zrotation Yrotation Xrotation
                          JOINT LeftHandRingEnd
                          {
                            OFFSET 1.937663 1e-06 -4e-06
                            CHANNELS 3 Zrotation Yrotation Xrotation
                          }
                        }
                      }
                    }
                  }
                  JOINT LeftHandPinky1
                  {
                    OFFSET 2.865315 -1.525436 0.575687
                    CHANNELS 3 Zrotation Yrotation Xrotation
                    JOINT LeftHandPinky2
                    {
                      OFFSET 5.54936 1e-06 -8e-06
                      CHANNELS 3 Zrotation Yrotation Xrotation
                      JOINT LeftHandPinky3
                      {
                        OFFSET 3.070974 0.0 -4e-06
                        CHANNELS 3 Zrotation Yrotation Xrotation
                        JOINT LeftHandPinky4
                        {
                          OFFSET 1.549672 1e-06 0.0
                          CHANNELS 3 Zrotation Yrotation Xrotation
                          JOINT LeftHandPinkyEnd
                          {
                            OFFSET 1.952123 0.0 0.0
                            CHANNELS 3 Zrotation Yrotation Xrotation
                          }
                        }
                      }
                    }
                  }
                }
              }
            }
          }
          JOINT RightShoulder
          {
            OFFSET 23.161716 5.296122 -1.380114
            CHANNELS 3 Zrotation Yrotation Xrotation
            JOINT RightArm
            {
              OFFSET -16.027195 -2e-06 1.1e-05
              CHANNELS 3 Zrotation Yrotation Xrotation
              JOINT RightForeArm
              {
                OFFSET -28.736639 4e-06 2e-06
                CHANNELS 3 Zrotation Yrotation Xrotation
                JOINT RightHand
                {
                  OFFSET -27.133619 6e-06 0.0
                  CHANNELS 3 Zrotation Yrotation Xrotation
                  JOINT RightHandThumb1
                  {
                    OFFSET -2.274328 -3.351035 -0.83067
                    CHANNELS 3 Zrotation Yrotation Xrotation
                    JOINT RightHandThumb2
                    {
                      OFFSET -4.703594 -3e-06 2e-06
                      CHANNELS 3 Zrotation Yrotation Xrotation
                      JOINT RightHandThumb3
                      {
                        OFFSET -2.794935 -4e-06 -3e-06
                        CHANNELS 3 Zrotation Yrotation Xrotation
                        JOINT RightHandThumbEnd
                        {
                          OFFSET -3.183852 4e-06 1e-06
                          CHANNELS 3 Zrotation Yrotation Xrotation
                        }
                      }
                    }
                  }
                  JOINT RightHandIndex1
                  {
                    OFFSET -3.253496 -2.33755 -0.127667
                    CHANNELS 3 Zrotation Yrotation Xrotation
                    JOINT RightHandIndex2
                    {
                      OFFSET -6.344434 0.0 0.0
                      CHANNELS 3 Zrotation Yrotation Xrotation
                      JOINT RightHandIndex3
                      {
                        OFFSET -3.654871 0.0 -8e-06
                        CHANNELS 3 Zrotation Yrotation Xrotation
                        JOINT RightHandIndex4
                        {
                          OFFSET -2.327586 -1e-06 0.0
                          CHANNELS 3 Zrotation Yrotation Xrotation
                          JOINT RightHandIndexEnd
                          {
                            OFFSET -2.770001 3e-06 8e-06
                            CHANNELS 3 Zrotation Yrotation Xrotation
                          }
                        }
                      }
                    }
                  }
                  JOINT RightHandMiddle1
                  {
                    OFFSET -3.168223 -0.944764 0.411762
                    CHANNELS 3 Zrotation Yrotation Xrotation
                    JOINT RightHandMiddle2
                    {
                      OFFSET -6.266691 -1e-06 -4e-06
                      CHANNELS 3 Zrotation Yrotation Xrotation
                      JOINT RightHandMiddle3
                      {
                        OFFSET -4.348901 0.0 0.0
                        CHANNELS 3 Zrotation Yrotation Xrotation
                        JOINT RightHandMiddle4
                        {
                          OFFSET -3.00024 2e-06 -4e-06
                          CHANNELS 3 Zrotation Yrotation Xrotation
                          JOINT RightHandMiddleEnd
                          {
                            OFFSET -2.321477 -4e-06 -4e-06
                            CHANNELS 3 Zrotation Yrotation Xrotation
                          }
                        }
                      }
                    }
                  }
                  JOINT RightHandRing1
                  {
                    OFFSET -2.885654 0.293261 -0.119232
                    CHANNELS 3 Zrotation Yrotation Xrotation
                    JOINT RightHandRing2
                    {
                      OFFSET -6.032835 -1e-06 -4e-06
                      CHANNELS 3 Zrotation Yrotation Xrotation
                      JOINT RightHandRing3
                      {
                        OFFSET -4.33881 0.0 -4e-06
                        CHANNELS 3 Zrotation Yrotation Xrotation
                        JOINT RightHandRing4
                        {
                          OFFSET -2.654903 -4e-06 -4e-06
                          CHANNELS 3 Zrotation Yrotation Xrotation
                          JOINT RightHandRingEnd
                          {
                            OFFSET -1.935122 0.0 4e-06
                            CHANNELS 3 Zrotation Yrotation Xrotation
                          }
                        }
                      }
                    }
                  }
                  JOINT RightHandPinky1
                  {
                    OFFSET -2.866241 1.503904 -0.60527
                    CHANNELS 3 Zrotation Yrotation Xrotation
                    JOINT RightHandPinky2
                    {
                      OFFSET -5.553177 -2e-06 0.0
                      CHANNELS 3 Zrotation Yrotation Xrotation
                      JOINT RightHandPinky3
                      {
                        OFFSET -3.062664 -1e-06 -4e-06
                        CHANNELS 3 Zrotation Yrotation Xrotation
                        JOINT RightHandPinky4
                        {
                          OFFSET -1.546529 2e-06 4e-06
                          CHANNELS 3 Zrotation Yrotation Xrotation
                          JOINT RightHandPinkyEnd
                          {
                            OFFSET -1.952341 0.0 -4e-06
                            CHANNELS 3 Zrotation Yrotation Xrotation
                          }
                        }
                      }
                    }
                  }
                }
              }
            }
          }
        }
      }
    }
    JOINT LeftLeg
    {
      OFFSET -8.443107 2.567604 10.043214
      CHANNELS 3 Zrotation Yrotation Xrotation
      JOINT LeftShin
      {
        OFFSET 43.229198 1e-06 -1e-06
        CHANNELS 3 Zrotation Yrotation Xrotation
        JOINT LeftFoot
        {
          OFFSET 42.298611 1e-06 1e-06
          CHANNELS 3 Zrotation Yrotation Xrotation
          JOINT LeftToeBase
          {
            OFFSET 14.165858 1e-06 0.0
            CHANNELS 3 Zrotation Yrotation Xrotation
            JOINT LeftToeEnd
            {
              OFFSET 6.7141 -0.234461 0.0
              CHANNELS 3 Zrotation Yrotation Xrotation
            }
          }
        }
      }
    }
    JOINT RightLeg
    {
      OFFSET -8.303923 2.592729 -10.047278
      CHANNELS 3 Zrotation Yrotation Xrotation
      JOINT RightShin
      {
        OFFSET -43.369682 0.0 1e-06
        CHANNELS 3 Zrotation Yrotation Xrotation
        JOINT RightFoot
        {
          OFFSET -42.260784 4e-06 2e-06
          CHANNELS 3 Zrotation Yrotation Xrotation
          JOINT RightToeBase
          {
            OFFSET -14.222245 -2e-06 -1e-06
            CHANNELS 3 Zrotation Yrotation Xrotation
            JOINT RightToeEnd
            {
              OFFSET -6.660062 0.232574 -2e-06
              CHANNELS 3 Zrotation Yrotation Xrotation
            }
          }
        }
      }
    }
  }
}
MOTION
Frames: 4
Frame Time: 0.03333333333333333
0.0 0.0 0.0 0.0 -0.0 0.0 -0.647364 100.228012 5.492175 89.738068 2.438784 90.217606 -1.295787 -0.183618 -0.221774 -11.117862 -0.715809 -0.681319 14.375308 0.625183 -2.791886 24.832237 0.221495 2.745059 -2.44427 -0.628152 -0.968096 -26.383654 -1.825257 -0.238021 6e-06 0.0 -0.0 0.01733 0.021657 -0.026947 0.054998 0.097872 0.005071 0.069423 -0.057528 -0.057177 -140.829956 -71.798653 155.188812 37.594654 -51.006775 27.626554 27.56669 -0.061094 -0.027849 -2.181989 0.499481 13.010196 17.636631 -26.322725 52.411186 -19.466656 -14.395598 29.410385 -1e-06 -8.774821 -1e-06 15.934222 -17.749226 6.075618 -0.609776 -1.795654 -3.889327 -4.80709 -11.046808 -2.937848 7e-06 -20.976011 -1e-06 -5.019971 -25.033554 -4.031878 6e-06 2e-06 0.0 -10.634533 -5.686967 -3.565588 10.573275 -17.922945 -3.1139 3e-06 -13.821204 2e-06 -0.501776 -31.181498 -4.027014 -11.293845 -59.631733 7.169522 -13.982714 -7.150195 -2.875042 13.772731 -8.401489 -3.218241 0.347735 -34.21154 0.771656 -0.963028 -17.733362 2.621022 -0.0 2e-06 0.0 -17.346416 -20.095213 -4.201785 21.757557 -1.638376 3.866429 1e-06 -6.338822 1e-06 -1.697588 -22.59174 -6.194006 -1e-06 -2e-06 -2e-06 36.473206 -77.836746 155.253006 31.46204 -58.720604 30.423384 28.474083 -0.391725 -0.0388 1.566154 -0.744126 18.883965 22.182114 -20.375898 49.933315 -16.701811 -16.74353 28.476532 -3e-06 -12.690601 -0.0 16.064445 -17.688225 2.7207 -0.105919 -1.513854 -4.275882 -5.039041 -5.612872 -2.953557 4e-06 -11.020523 -1e-06 -6.111298 -15.89533 -3.84047 0.0 1e-06 -0.0 -10.283371 -5.680287 -4.341838 11.028296 -11.302406 -2.372631 -1.384271 -14.238579 -6.320119 -0.625435 -26.924191 -3.827601 -4.649519 -49.717716 -3.856622 -13.708527 -7.363473 -3.72094 18.141151 -14.05274 -3.242673 7e-06 -18.78727 1e-06 -0.429711 -8.456045 2.555503 -0.0 2e-06 1e-06 -15.923536 -20.094481 -5.473584 30.41921 -7.190828 1.735927 1e-06 -8.162925 1e-06 -1.861903 -22.861469 -6.167939 -1e-06 -5e-06 -2e-06 -176.194717 -4.807014 -12.623275 7.230197 -0.028999 0.104194 -76.77729 -1.990655 -4.395141 -9.053146 1.593615 2.02794 -1.0 1e-06 -0.0 3.879725 -3.806191 -9.283492 6.500629 0.050696 -0.120905 -76.308121 -1.78995 -7.545375 -8.806301 0.798805 1.612587 -1.000002 -1e-06 -0.0 
0.0 0.0 0.0 0.0 -0.0 0.0 -0.655692 100.245201 5.363016 89.744278 2.446774 90.255539 -1.28725 -0.193793 -0.244748 -11.114417 -0.688444 -0.602289 14.38812 0.662328 -2.820253 24.968931 0.177415 2.753882 -2.428218 -0.632839 -0.966718 -26.327679 -1.83442 -0.255261 6e-06 0.0 -0.0 0.022209 0.018108 -0.010367 0.052623 0.094139 0.023522 0.065959 -0.060889 -0.04249 -140.853088 -71.758682 155.230133 37.772163 -50.893475 27.543308 27.73984 -0.081377 -0.094863 -2.131696 0.564561 13.073536 17.636629 -26.322731 52.411182 -19.46666 -14.395596 29.410385 -1e-06 -8.774821 -1e-06 15.877639 -17.719517 6.097657 -0.609776 -1.795654 -3.889328 -4.807087 -11.046807 -2.937849 5e-06 -20.976013 1e-06 -5.019969 -25.033552 -4.03188 7e-06 2e-06 -0.0 -10.634533 -5.686968 -3.565587 10.573274 -17.922951 -3.113899 3e-06 -13.821209 3e-06 -0.50178 -31.181505 -4.027011 -11.237072 -59.5937 7.184396 -13.982713 -7.150197 -2.875042 13.772731 -8.401491 -3.21824 0.347734 -34.211544 0.771656 -0.963031 -17.73337 2.621022 0.0 2e-06 1e-06 -17.346416 -20.095215 -4.201779 21.757557 -1.638375 3.866425 0.0 -6.338824 2e-06 -1.697586 -22.591742 -6.194005 -0.0 -4e-06 -3e-06 36.695713 -77.795738 155.056961 31.525629 -58.68465 30.293072 28.422432 -0.356266 -0.029747 1.59172 -0.801559 18.821962 22.182112 -20.375895 49.933323 -16.701811 -16.74353 28.476528 -4e-06 -12.690598 1e-06 16.017559 -17.697737 2.757818 -0.105919 -1.513855 -4.275882 -5.039041 -5.612871 -2.953557 5e-06 -11.020519 -1e-06 -6.111293 -15.895326 -3.840472 0.0 0.0 -2e-06 -10.283367 -5.680285 -4.34184 11.028294 -11.302402 -2.372634 -1.384268 -14.238575 -6.32012 -0.625434 -26.924179 -3.827601 -4.742326 -49.8134 -3.760619 -13.70852 -7.363472 -3.72094 18.141146 -14.052736 -3.242674 8e-06 -18.787262 -1e-06 -0.429713 -8.456041 2.555504 -0.0 2e-06 0.0 -15.923531 -20.094475 -5.473586 30.419205 -7.190826 1.735926 1e-06 -8.162922 0.0 -1.861902 -22.861464 -6.167937 -1e-06 -5e-06 -2e-06 -176.192825 -4.798944 -12.527537 7.100693 -0.022109 0.14578 -76.633507 -1.984564 -4.50776 -9.083627 1.604761 2.029661 -0.999999 -0.0 -0.0 3.888141 -3.79349 -9.2207 6.410486 0.040306 -0.110077 -76.209793 -1.921646 -7.484469 -8.896496 0.785737 1.611766 -1.000003 0.0 -0.0 
0.0 0.0 0.0 0.0 -0.0 0.0 -0.62565 100.253586 5.319887 89.756516 2.469931 90.281372 -1.278372 -0.201114 -0.262865 -11.11868 -0.670077 -0.568508 14.456156 0.695979 -2.818059 25.129341 0.145166 2.766699 -2.453391 -0.630387 -0.957866 -26.244238 -1.835193 -0.258266 6e-06 -0.0 0.0 0.020256 0.017449 -0.004454 0.035976 0.088465 0.032167 0.049828 -0.056554 -0.039607 -140.88382 -71.713326 155.317917 37.951126 -50.746338 27.428608 27.925907 -0.090859 -0.130147 -2.119259 0.594763 13.028644 17.636625 -26.322729 52.411182 -19.466656 -14.395596 29.410381 0.0 -8.774819 -1e-06 15.866601 -17.719118 6.099174 -0.609776 -1.795654 -3.889328 -4.807088 -11.04681 -2.93785 3e-06 -20.976015 1e-06 -5.019972 -25.033558 -4.03188 5e-06 1e-06 -0.0 -10.634532 -5.686973 -3.565586 10.573271 -17.922947 -3.113901 2e-06 -13.821208 3e-06 -0.501779 -31.181501 -4.027017 -11.259706 -59.536163 7.180413 -13.982711 -7.150198 -2.875042 13.772726 -8.401491 -3.218241 0.347731 -34.211544 0.771655 -0.963031 -17.733368 2.62102 -0.0 1e-06 0.0 -17.346415 -20.095215 -4.20178 21.757555 -1.638374 3.866427 -0.0 -6.338823 1e-06 -1.697591 -22.591743 -6.194005 -1e-06 -5e-06 -2e-06 36.795364 -77.746536 154.990173 31.621983 -58.612209 30.038862 28.377569 -0.368376 -0.029275 1.57396 -0.816474 18.882729 22.182114 -20.375898 49.933327 -16.701809 -16.74353 28.47653 -2e-06 -12.690601 -2e-06 15.986277 -17.672625 2.785192 -0.105919 -1.513855 -4.275882 -5.039042 -5.612873 -2.953557 4e-06 -11.020525 -1e-06 -6.111297 -15.89533 -3.840472 -0.0 0.0 -1e-06 -10.283369 -5.680288 -4.341839 11.028294 -11.302405 -2.372633 -1.384271 -14.238581 -6.320121 -0.625439 -26.924191 -3.827601 -4.81617 -49.843227 -3.702745 -13.708524 -7.363477 -3.720942 18.141146 -14.052739 -3.242671 5e-06 -18.787271 -1e-06 -0.429713 -8.456043 2.555504 -1e-06 2e-06 0.0 -15.923534 -20.094482 -5.473586 30.41921 -7.190823 1.735924 1e-06 -8.162925 0.0 -1.861901 -22.861469 -6.167941 -1e-06 -6e-06 -3e-06 -176.153275 -4.769442 -12.429167 7.003107 -0.02515 0.175018 -76.552567 -1.988763 -4.54708 -9.094999 1.60508 2.031157 -0.999999 -0.0 -0.0 3.93886 -3.800642 -9.15822 6.327253 0.038424 -0.105694 -76.135536 -2.08199 -7.496459 -8.929941 0.780057 1.611523 -1.000002 0.0 0.0 
0.0 0.0 0.0 0.0 -0.0 0.0 -0.607279 100.262711 5.304568 89.76857 2.501476 90.307396 -1.256968 -0.210488 -0.274861 -11.124898 -0.656633 -0.566513 14.530027 0.728651 -2.793509 25.304358 0.105335 2.767636 -2.482449 -0.625926 -0.925162 -26.21117 -1.828371 -0.229156 6e-06 0.0 0.0 0.016331 0.01732 -0.006463 0.023281 0.083577 0.032785 0.0359 -0.051804 -0.044627 -140.889389 -71.672066 155.401062 38.140957 -50.619827 27.274929 28.04735 -0.097726 -0.137191 -2.104308 0.627066 13.054029 17.636627 -26.322729 52.411186 -19.466658 -14.3956 29.410381 -0.0 -8.774822 -2e-06 15.849851 -17.716637 6.094024 -0.609777 -1.795655 -3.889327 -4.807089 -11.046808 -2.937849 4e-06 -20.976015 1e-06 -5.019972 -25.03356 -4.03188 6e-06 1e-06 0.0 -10.634535 -5.686968 -3.565587 10.573272 -17.922947 -3.113899 2e-06 -13.821206 2e-06 -0.501779 -31.181498 -4.027017 -11.27942 -59.478642 7.160944 -13.982714 -7.150197 -2.875041 13.772731 -8.401491 -3.21824 0.347734 -34.211552 0.771654 -0.963028 -17.73337 2.62102 0.0 1e-06 0.0 -17.346416 -20.095215 -4.201779 21.757557 -1.638374 3.866428 1e-06 -6.338824 1e-06 -1.697591 -22.591747 -6.194006 1e-06 -5e-06 -2e-06 36.852165 -77.700424 154.962875 31.738157 -58.541538 29.868643 28.309748 -0.34593 -0.022954 1.567308 -0.835325 18.861971 22.182112 -20.375883 49.933319 -16.701809 -16.743526 28.476524 -3e-06 -12.690598 -1e-06 15.957064 -17.630156 2.801459 -0.105919 -1.513855 -4.275879 -5.03904 -5.612869 -2.953556 3e-06 -11.020519 -1e-06 -6.111296 -15.895328 -3.840471 -0.0 0.0 -2e-06 -10.283368 -5.680288 -4.341837 11.028292 -11.302401 -2.372633 -1.38427 -14.238575 -6.32012 -0.625436 -26.924181 -3.827605 -4.847905 -49.79879 -3.669404 -13.708521 -7.363472 -3.720938 18.141146 -14.052735 -3.242675 7e-06 -18.787264 -3e-06 -0.429712 -8.45604 2.555503 -1e-06 1e-06 0.0 -15.923534 -20.094479 -5.473583 30.419205 -7.190823 1.735927 0.0 -8.162922 -1e-06 -1.861902 -22.861464 -6.167941 1e-06 -6e-06 -3e-06 -176.071594 -4.74543 -12.383872 6.848591 -0.030216 0.192509 -76.440475 -1.978583 -4.570202 -9.110152 1.599627 2.02935 -0.999998 0.0 -0.0 4.016119 -3.806044 -9.128644 6.219062 0.041917 -0.114612 -76.039604 -2.165677 -7.509429 -8.931833 0.771584 1.609526 -1.000001 -0.0 0.0 
